<svg width="1332" height="648" viewBox="0 0 1332 648" fill="none" xmlns="http://www.w3.org/2000/svg">
<path d="M1229.57 599.684C1267.75 586.454 1299.57 557.998 1317.38 521.967C1340.59 474.981 1321.83 424.316 1304.3 381.457C1289.56 345.392 1285.27 312.427 1297.16 277.461C1308.66 243.643 1340.97 203.286 1329.62 162.214C1317.14 117.063 1254.04 83.2449 1209.91 90.5163C1171.81 96.8 1127.18 105.973 1092.32 73.9243C1033.98 20.28 983.494 -17.7186 908.606 18.5271C872.31 36.0985 835.323 51.8223 794.734 53.4847C745.001 55.5176 710.261 30.4937 666.82 11.4985C616.585 -10.4596 547.796 1.58924 514.357 26.1316C479.855 51.4476 486.897 46.9252 455.828 69.2413C416.516 97.4708 381.228 92.969 336.635 71.6405C301.99 55.0772 269.608 40.3823 229.925 33.0286C153.609 18.9056 57.5211 63.0646 44.7874 141.124C37.9225 183.242 50.4587 207.792 60.2169 251.626C69.9669 295.415 42.1945 332.488 17.8053 365.742C-24.2442 423.044 11.0762 528.555 93.3477 514.115C148.036 504.515 218.175 473.084 247.359 542.682C273.65 605.363 334.343 652.123 404.095 642.193C447.231 636.049 488.358 616.457 527.679 603.824C569.309 590.454 611.885 604.622 649.403 625.881C681.764 644.226 720.838 652.152 756.998 645.675C799.208 638.119 831.083 600.026 864.856 579.352C943.444 531.283 1025.18 549.365 1107.57 592.664C1144.9 612.268 1189.91 613.445 1229.57 599.684Z" fill="#007CC2"/>
</svg>
