<svg width="1050" height="361" viewBox="0 0 1050 361" fill="none" xmlns="http://www.w3.org/2000/svg">
<path d="M370.799 99.4695L366.602 23.3646C366.451 20.4913 365.657 18.1472 364.221 16.3325C362.86 14.5178 360.44 13.1189 356.962 12.136L345.733 9.64072C345.431 9.4895 345.204 9.37607 345.053 9.30046C344.901 9.14923 344.826 8.99801 344.826 8.84678C344.826 8.61994 344.901 8.46871 345.053 8.3931C345.204 8.24187 345.431 8.16626 345.733 8.16626H386.905C387.207 8.16626 387.434 8.24187 387.585 8.3931C387.736 8.46871 387.812 8.61994 387.812 8.84678C387.812 8.99801 387.699 9.14923 387.472 9.30046C387.245 9.45169 386.905 9.60292 386.451 9.75415L377.264 12.4762C374.542 13.2324 372.425 14.5934 370.912 16.5594C369.4 18.5253 368.72 20.7937 368.871 23.3646L373.067 98.3353C373.294 102.418 373.521 106.464 373.748 110.471C374.05 114.479 374.202 118.562 374.202 122.721C374.202 131.416 372.462 139.356 368.984 146.539C365.506 153.647 359.986 159.318 352.425 163.552C344.939 167.786 335.109 169.903 322.936 169.903C309.703 169.903 298.702 167.938 289.93 164.006C281.235 160.074 274.732 154.705 270.422 147.9C266.188 141.095 264.071 133.42 264.071 124.876C264.071 122.683 264.108 119.847 264.184 116.369C264.335 112.815 264.524 109.261 264.751 105.708C264.978 102.078 265.167 99.0158 265.318 96.5206L270.082 14.1775C270.157 13.2702 269.855 12.5896 269.175 12.136C268.494 11.6823 267.435 11.342 265.999 11.1152L255.451 9.64072C254.695 9.41388 254.316 9.14923 254.316 8.84678C254.316 8.61994 254.392 8.46871 254.543 8.3931C254.695 8.24187 254.959 8.16626 255.337 8.16626H308.191C308.494 8.16626 308.72 8.24187 308.872 8.3931C309.098 8.46871 309.212 8.61994 309.212 8.84678C309.212 8.99801 309.098 9.14923 308.872 9.30046C308.72 9.37607 308.418 9.4895 307.964 9.64072L297.189 11.1152C295.828 11.342 294.845 11.6823 294.24 12.136C293.635 12.5896 293.295 13.3836 293.22 14.5178L288.569 95.8401C288.267 101.587 288.078 106.88 288.002 111.719C287.927 116.483 287.889 120.49 287.889 123.741C287.889 138.335 291.367 149.223 298.324 156.406C305.28 163.514 315.072 167.068 327.699 167.068C336.622 167.068 344.372 165.291 350.95 161.737C357.604 158.183 362.746 153.155 366.376 146.652C370.005 140.074 371.82 132.324 371.82 123.401C371.82 118.713 371.669 114.365 371.366 110.358C371.139 106.35 370.95 102.721 370.799 99.4695Z" fill="#F4BFD9"/>
<path d="M427.576 112.626C427.576 102.343 428.975 93.7607 431.773 86.8799C434.646 79.9991 438.276 74.8195 442.661 71.3413C447.123 67.8631 451.735 66.124 456.499 66.124C461.792 66.124 465.875 67.7497 468.748 71.0011C471.697 74.1768 473.171 78.5624 473.171 84.1578C473.171 88.5434 472.151 91.8326 470.109 94.0254C468.143 96.1425 465.648 97.2011 462.623 97.2011C459.826 97.2011 457.671 96.4072 456.158 94.8193C454.646 93.2314 453.852 90.774 453.777 87.447L453.663 84.1578C453.587 81.5113 453.02 79.5454 451.962 78.2599C450.903 76.9745 449.126 76.3318 446.631 76.3318C443.758 76.3318 440.922 77.7307 438.125 80.5284C435.402 83.2504 433.134 87.3336 431.319 92.7777C429.58 98.2219 428.711 104.989 428.711 113.08L427.576 112.626ZM428.711 68.3924V160.603C428.711 161.435 428.938 162.153 429.391 162.758C429.92 163.363 430.639 163.741 431.546 163.892L442.775 165.48C443.228 165.556 443.493 165.669 443.569 165.82C443.72 165.896 443.796 166.047 443.796 166.274C443.796 166.425 443.72 166.576 443.569 166.728C443.417 166.879 443.153 166.955 442.775 166.955H398.314C398.087 166.955 397.86 166.879 397.634 166.728C397.407 166.501 397.293 166.35 397.293 166.274C397.293 166.047 397.407 165.858 397.634 165.707C397.86 165.556 398.201 165.442 398.654 165.367L405.8 164.346C406.783 164.195 407.463 163.854 407.841 163.325C408.295 162.796 408.522 162.191 408.522 161.51V77.2392C408.522 76.7855 408.446 76.4452 408.295 76.2184C408.144 75.9159 407.804 75.7647 407.274 75.7647H398.201C398.049 75.7647 397.898 75.6891 397.747 75.5379C397.596 75.3866 397.52 75.2354 397.52 75.0842C397.52 74.8573 397.596 74.6683 397.747 74.5171C397.898 74.3659 398.125 74.2524 398.427 74.1768L425.648 67.3716C426.178 67.2204 426.556 67.1448 426.783 67.1448C427.085 67.0692 427.35 67.0313 427.576 67.0313C428.03 67.0313 428.333 67.1826 428.484 67.485C428.635 67.7875 428.711 68.0899 428.711 68.3924Z" fill="#F4BFD9"/>
<path d="M530.296 66.124C539.823 66.124 548.292 68.3168 555.702 72.7024C563.188 77.0879 569.048 83.2126 573.282 91.0764C577.592 98.8646 579.747 107.863 579.747 118.07C579.747 128.203 577.555 137.125 573.169 144.838C568.859 152.475 562.886 158.448 555.249 162.758C547.687 167.068 538.992 169.223 529.162 169.223C519.635 169.223 511.166 167.068 503.756 162.758C496.346 158.448 490.523 152.475 486.289 144.838C482.13 137.125 480.051 128.203 480.051 118.07C480.051 107.938 482.168 98.978 486.403 91.1898C490.637 83.4017 496.535 77.277 504.096 72.8158C511.657 68.3546 520.391 66.124 530.296 66.124ZM535.513 167.408C541.109 166.955 545.797 164.648 549.578 160.49C553.434 156.255 556.156 150.32 557.744 142.683C559.332 134.97 559.559 125.745 558.424 115.008C557.29 104.044 555.173 95.0083 552.073 87.9007C548.973 80.7174 545.079 75.4622 540.391 72.1353C535.703 68.8083 530.372 67.3716 524.398 67.8253C518.425 68.3546 513.548 70.7742 509.767 75.0842C505.986 79.3941 503.378 85.3676 501.941 93.0046C500.58 100.642 500.429 109.753 501.487 120.339C502.622 130.925 504.777 139.809 507.952 146.993C511.128 154.176 515.06 159.507 519.748 162.985C524.512 166.387 529.767 167.862 535.513 167.408Z" fill="#F4BFD9"/>
<path d="M663.423 10.8883C663.423 10.5103 663.31 10.2078 663.083 9.98098C662.932 9.75414 662.591 9.64072 662.062 9.64072H653.215C652.988 9.64072 652.799 9.56511 652.648 9.41388C652.497 9.26266 652.421 9.07363 652.421 8.84678C652.421 8.61994 652.497 8.46871 652.648 8.3931C652.799 8.24187 653.026 8.12845 653.329 8.05285L680.55 0.453688C681.154 0.226846 681.57 0.113425 681.797 0.113425C682.024 0.0378085 682.251 0 682.478 0C682.856 0 683.12 0.151229 683.272 0.453688C683.498 0.68053 683.612 0.945176 683.612 1.24763V161.057C683.612 161.964 683.801 162.72 684.179 163.325C684.633 163.854 685.351 164.195 686.334 164.346L693.479 165.48C693.933 165.48 694.236 165.556 694.387 165.707C694.538 165.858 694.614 166.047 694.614 166.274C694.614 166.425 694.538 166.576 694.387 166.728C694.236 166.879 694.009 166.955 693.706 166.955H666.599C665.616 166.955 664.822 166.652 664.217 166.047C663.688 165.442 663.423 164.497 663.423 163.212V10.8883ZM590.494 120.225C590.494 108.959 592.611 99.2805 596.845 91.1898C601.155 83.0992 606.789 76.8989 613.745 72.5889C620.777 68.279 628.452 66.124 636.769 66.124C644.482 66.124 650.947 67.7875 656.164 71.1145C661.457 74.3659 665.692 78.7136 668.867 84.1578L667.166 84.9517C664.595 80.1125 661.079 76.2562 656.618 73.3829C652.232 70.434 647.015 68.9595 640.966 68.9595C635.446 68.9595 630.418 70.6986 625.881 74.1768C621.344 77.655 617.715 83.0236 614.993 90.2825C612.271 97.5414 610.91 106.842 610.91 118.184C610.91 128.392 612.082 136.898 614.426 143.703C616.845 150.509 620.134 155.65 624.293 159.129C628.452 162.531 633.253 164.232 638.698 164.232C642.705 164.232 646.977 163.136 651.514 160.943C656.126 158.675 660.588 154.894 664.898 149.601L665.918 150.735C659.945 157.616 654.312 162.418 649.019 165.14C643.726 167.862 637.979 169.223 631.779 169.223C623.915 169.223 616.845 167.219 610.569 163.212C604.369 159.204 599.454 153.533 595.825 146.199C592.271 138.864 590.494 130.206 590.494 120.225Z" fill="#F4BFD9"/>
<path d="M778.376 71.0011L722.006 166.047L718.944 165.367H750.361C753.84 165.367 756.902 164.837 759.549 163.779C762.271 162.645 764.917 160.603 767.488 157.654C770.059 154.63 772.856 150.282 775.881 144.611L780.418 135.424C780.569 135.121 780.72 134.932 780.872 134.857C781.098 134.705 781.325 134.705 781.552 134.857C781.703 134.932 781.779 135.083 781.779 135.31C781.854 135.537 781.854 135.915 781.779 136.445L775.087 167.862C775.011 168.467 774.898 168.845 774.747 168.996C774.596 169.223 774.444 169.336 774.293 169.336C773.764 169.336 772.97 168.92 771.911 168.089C770.928 167.333 769.529 166.955 767.715 166.955H701.477C701.251 166.955 701.061 166.917 700.91 166.841C700.759 166.69 700.683 166.539 700.683 166.387C700.683 166.161 700.721 165.934 700.797 165.707C700.948 165.404 701.137 164.989 701.364 164.459L758.187 69.1863L761.703 69.9803H728.471C725.825 69.9803 723.367 70.5474 721.099 71.6816C718.831 72.8158 716.638 74.7817 714.521 77.5794C712.404 80.3015 710.211 84.0444 707.942 88.808L703.632 97.7682C703.481 98.1463 703.292 98.4487 703.065 98.6756C702.838 98.8268 702.574 98.9024 702.271 98.9024C701.969 98.8268 701.78 98.6756 701.704 98.4487C701.629 98.1463 701.629 97.6926 701.704 97.0877L707.715 68.3924C707.867 67.7119 707.98 67.2582 708.056 67.0313C708.207 66.7289 708.434 66.5777 708.736 66.5777C709.266 66.5777 710.022 66.8801 711.005 67.485C711.988 68.0899 713.311 68.3924 714.974 68.3924H778.263C778.565 68.3924 778.792 68.4302 778.943 68.5058C779.095 68.5814 779.17 68.7705 779.17 69.0729C779.17 69.2998 779.095 69.5644 778.943 69.8668C778.868 70.0937 778.679 70.4718 778.376 71.0011Z" fill="#F4BFD9"/>
<path d="M820.932 67.8253V161.057C820.932 161.964 821.159 162.72 821.612 163.325C822.066 163.854 822.747 164.195 823.654 164.346L830.799 165.48C831.253 165.48 831.556 165.556 831.707 165.707C831.858 165.858 831.934 166.047 831.934 166.274C831.934 166.425 831.858 166.576 831.707 166.728C831.556 166.879 831.329 166.955 831.026 166.955H790.308C790.157 166.955 789.968 166.879 789.741 166.728C789.59 166.576 789.514 166.425 789.514 166.274C789.514 166.123 789.59 166.009 789.741 165.934C789.893 165.783 790.157 165.669 790.535 165.594L798.021 164.346C799.004 164.195 799.722 163.854 800.176 163.325C800.63 162.72 800.856 162.04 800.856 161.284V77.466C800.856 77.0879 800.743 76.7855 800.516 76.5586C800.365 76.3318 800.025 76.2184 799.495 76.2184H790.649C790.346 76.2184 790.119 76.1428 789.968 75.9915C789.893 75.8403 789.855 75.6513 789.855 75.4244C789.855 75.1976 789.93 75.0464 790.082 74.9708C790.233 74.8195 790.422 74.7061 790.649 74.6305L817.87 67.0313C818.474 66.8045 818.89 66.6911 819.117 66.6911C819.344 66.6155 819.609 66.5777 819.911 66.5777C820.214 66.5777 820.44 66.7289 820.592 67.0313C820.818 67.2582 820.932 67.5228 820.932 67.8253ZM810.27 48.317C806.565 48.317 803.541 47.0694 801.197 44.5742C798.928 42.0033 797.794 38.8653 797.794 35.1603C797.794 31.4552 798.966 28.3551 801.31 25.8598C803.654 23.2889 806.641 22.0035 810.27 22.0035C814.051 22.0035 817.113 23.2889 819.457 25.8598C821.877 28.4307 823.087 31.5308 823.087 35.1603C823.087 38.8653 821.877 42.0033 819.457 44.5742C817.038 47.0694 813.975 48.317 810.27 48.317Z" fill="#F4BFD9"/>
<path d="M870.537 67.8253V161.057C870.537 161.964 870.764 162.72 871.218 163.325C871.671 163.854 872.352 164.195 873.259 164.346L880.405 165.48C881.161 165.556 881.539 165.82 881.539 166.274C881.539 166.728 881.237 166.955 880.632 166.955H839.914C839.763 166.955 839.574 166.879 839.347 166.728C839.195 166.576 839.12 166.425 839.12 166.274C839.12 166.123 839.195 166.009 839.347 165.934C839.498 165.783 839.763 165.669 840.141 165.594L847.74 164.346C848.647 164.195 849.328 163.854 849.781 163.325C850.235 162.72 850.462 162.04 850.462 161.284V77.466C850.462 77.0879 850.348 76.7855 850.122 76.5586C849.97 76.3318 849.63 76.2184 849.101 76.2184H840.254C839.952 76.2184 839.725 76.1428 839.574 75.9915C839.498 75.8403 839.46 75.6513 839.46 75.4244C839.46 75.1976 839.536 75.0464 839.687 74.9708C839.838 74.8195 840.027 74.7061 840.254 74.6305L867.475 67.0313C868.08 66.8045 868.496 66.6911 868.723 66.6911C868.949 66.6155 869.214 66.5777 869.516 66.5777C869.819 66.5777 870.046 66.7289 870.197 67.0313C870.424 67.2582 870.537 67.5228 870.537 67.8253ZM868.949 88.6946L867.929 87.6738L871.785 84.1578C879.044 77.5794 885.206 72.9292 890.272 70.2071C895.414 67.485 900.367 66.124 905.13 66.124C912.162 66.124 917.607 68.4302 921.463 73.0426C925.395 77.655 928.041 84.7249 929.402 94.2522L938.249 160.149C938.4 161.359 938.741 162.38 939.27 163.212C939.875 163.968 940.782 164.421 941.992 164.573L948.117 165.594C948.495 165.594 948.722 165.669 948.797 165.82C948.948 165.972 949.024 166.123 949.024 166.274C949.024 166.425 948.948 166.576 948.797 166.728C948.722 166.879 948.533 166.955 948.23 166.955H906.718C906.038 166.955 905.698 166.728 905.698 166.274C905.698 165.896 906.113 165.631 906.945 165.48L914.431 164.346C915.716 164.195 916.624 163.741 917.153 162.985C917.682 162.153 917.871 161.208 917.72 160.149L909.554 96.2938C908.495 88.9593 906.68 83.5907 904.11 80.1881C901.539 76.7855 897.796 75.0842 892.881 75.0842C889.63 75.0842 886.378 75.9159 883.127 77.5794C879.951 79.2429 876.473 81.8138 872.692 85.292L868.949 88.6946Z" fill="#F4BFD9"/>
<path d="M1008.03 148.013L997.94 173.646L960.625 83.137C958.81 78.9027 956.731 75.7647 954.387 73.7231C952.118 71.606 949.472 70.3205 946.447 69.8668C945.842 69.7912 945.464 69.6778 945.313 69.5266C945.162 69.3754 945.086 69.2241 945.086 69.0729C945.086 68.7705 945.2 68.5814 945.426 68.5058C945.578 68.4302 945.767 68.3924 945.994 68.3924H991.702C992.004 68.3924 992.231 68.468 992.382 68.6192C992.534 68.6948 992.609 68.8839 992.609 69.1863C992.609 69.4132 992.534 69.6022 992.382 69.7534C992.231 69.9047 991.967 69.9803 991.589 69.9803L982.515 71.1145C980.776 71.3413 979.717 72.1353 979.339 73.4963C978.961 74.7817 979.188 76.4452 980.02 78.4868L1008.03 148.013ZM987.846 197.011L1000.89 163.892L1002.25 160.49L1032.31 83.0236C1033.82 79.0917 1034.16 76.294 1033.33 74.6305C1032.57 72.8914 1030.79 71.7572 1028 71.2279L1021.42 70.0937C1020.96 70.0181 1020.62 69.9425 1020.4 69.8668C1020.25 69.7156 1020.17 69.5266 1020.17 69.2997C1020.17 68.9973 1020.25 68.7705 1020.4 68.6192C1020.55 68.468 1020.78 68.3924 1021.08 68.3924H1048.87C1049.24 68.3924 1049.51 68.468 1049.66 68.6192C1049.89 68.7705 1050 68.9595 1050 69.1863C1050 69.4132 1049.89 69.6022 1049.66 69.7534C1049.51 69.829 1049.21 69.9047 1048.75 69.9803C1045.05 70.5852 1042.06 71.8706 1039.79 73.8366C1037.52 75.7269 1035.6 78.7514 1034.01 82.9102L988.98 198.032C986.787 203.703 984.783 208.353 982.969 211.982C981.229 215.612 979.188 218.258 976.844 219.922C974.576 221.661 971.551 222.53 967.77 222.53C962.78 222.53 958.734 221.056 955.634 218.107C952.61 215.158 951.097 211.529 951.097 207.219C951.097 204.345 951.891 202.039 953.479 200.3C955.067 198.637 957.033 197.805 959.377 197.805C961.494 197.805 963.233 198.523 964.594 199.96C965.956 201.396 966.938 203.4 967.543 205.971L968.451 209.827C968.829 211.869 969.509 213.646 970.492 215.158C971.475 216.746 972.799 217.54 974.462 217.54C975.899 217.54 977.298 216.784 978.659 215.272C980.02 213.759 981.456 211.453 982.969 208.353C984.481 205.253 986.107 201.472 987.846 197.011Z" fill="#F4BFD9"/>
<path d="M275.299 296.991H334.618L334.958 298.919H274.732L275.299 296.991ZM278.135 357.671C278.135 357.822 278.059 357.973 277.908 358.124C277.832 358.276 277.681 358.351 277.454 358.351H244.903C244.676 358.351 244.487 358.276 244.335 358.124C244.184 357.973 244.109 357.822 244.109 357.671C244.109 357.444 244.222 357.293 244.449 357.217C244.6 357.066 244.751 356.952 244.903 356.877L250.233 355.402C252.275 354.722 254.241 353.361 256.131 351.319C258.097 349.202 259.836 345.686 261.349 340.771L300.365 210.111C301.121 207.843 301.083 206.028 300.252 204.667C299.42 203.23 297.794 202.172 295.375 201.491C294.694 201.113 294.165 200.848 293.787 200.697C293.484 200.546 293.333 200.395 293.333 200.243C293.333 200.017 293.409 199.865 293.56 199.79C293.711 199.638 293.976 199.563 294.354 199.563H330.195C330.497 199.563 330.686 199.638 330.762 199.79C330.913 199.865 330.989 200.017 330.989 200.243C330.989 200.395 330.837 200.584 330.535 200.81C330.308 200.962 329.854 201.189 329.174 201.491C326.981 201.642 325.658 202.058 325.204 202.739C324.826 203.344 324.902 204.516 325.431 206.255L372.047 350.979C372.652 352.869 373.597 354.268 374.882 355.175C376.168 356.083 377.831 356.612 379.873 356.763C380.251 356.839 380.515 356.952 380.667 357.104C380.818 357.255 380.893 357.444 380.893 357.671C380.893 357.822 380.818 357.973 380.667 358.124C380.515 358.276 380.288 358.351 379.986 358.351H337.453C337.227 358.351 337.038 358.276 336.886 358.124C336.735 357.973 336.66 357.822 336.66 357.671C336.66 357.444 336.773 357.293 337 357.217C337.227 357.141 337.491 357.028 337.794 356.877L343.918 356.196C345.658 355.818 346.754 355.138 347.208 354.155C347.661 353.172 347.623 351.848 347.094 350.185L301.84 208.296L304.108 204.326L263.277 340.998C262.445 343.796 262.331 346.177 262.936 348.143C263.541 350.034 264.713 351.622 266.452 352.907C268.192 354.117 270.309 355.1 272.804 355.856L277.227 356.877C277.53 356.952 277.757 357.066 277.908 357.217C278.059 357.293 278.135 357.444 278.135 357.671Z" fill="#F4BFD9"/>
<path d="M416.635 259.335V352.567C416.635 353.398 416.862 354.117 417.315 354.722C417.845 355.251 418.563 355.629 419.47 355.856L426.616 356.877C427.296 356.952 427.637 357.217 427.637 357.671C427.637 358.124 427.296 358.351 426.616 358.351H386.125C385.898 358.351 385.671 358.276 385.444 358.124C385.293 357.973 385.218 357.822 385.218 357.671C385.218 357.519 385.293 357.406 385.444 357.33C385.671 357.179 385.974 357.028 386.352 356.877L393.837 355.742C394.745 355.591 395.425 355.251 395.879 354.722C396.333 354.192 396.56 353.587 396.56 352.907V269.089C396.56 268.636 396.446 268.296 396.219 268.069C396.068 267.766 395.728 267.615 395.199 267.615H386.125C385.974 267.615 385.822 267.539 385.671 267.388C385.52 267.237 385.444 267.086 385.444 266.934C385.444 266.708 385.52 266.519 385.671 266.367C385.822 266.216 386.049 266.103 386.352 266.027L413.686 258.315C414.14 258.163 414.48 258.088 414.707 258.088C415.009 258.012 415.312 257.974 415.614 257.974C415.992 257.974 416.257 258.125 416.408 258.428C416.559 258.73 416.635 259.033 416.635 259.335ZM414.82 280.091L413.913 279.297L417.656 275.668C425.141 268.711 431.758 263.948 437.504 261.377C443.251 258.806 448.733 257.521 453.95 257.521C461.587 257.521 467.863 259.902 472.778 264.666C477.693 269.43 480.15 276.764 480.15 286.67V352.226C480.15 353.285 480.453 354.155 481.058 354.835C481.738 355.516 482.646 355.931 483.78 356.083L489.224 356.99C489.829 357.066 490.131 357.293 490.131 357.671C490.131 358.124 489.753 358.351 488.997 358.351H449.754C449.073 358.351 448.733 358.124 448.733 357.671C448.733 357.217 449.111 356.952 449.867 356.877L456.786 355.969C458.222 355.667 459.168 355.1 459.621 354.268C460.075 353.361 460.302 352.34 460.302 351.206V288.825C460.302 281.339 458.487 275.743 454.858 272.038C451.228 268.333 446.578 266.481 440.907 266.481C437.051 266.481 433.308 267.275 429.678 268.863C426.124 270.375 422.419 272.984 418.563 276.689L414.82 280.091ZM477.428 280.091L476.521 279.297L480.037 275.441C486.162 268.938 491.719 264.326 496.71 261.604C501.7 258.882 506.88 257.521 512.248 257.521C519.28 257.521 524.951 259.902 529.261 264.666C533.647 269.43 536.52 276.802 537.881 286.783L546.728 352C546.879 353.209 547.257 354.192 547.862 354.949C548.467 355.629 549.337 356.045 550.471 356.196L555.802 356.99C556.104 357.066 556.331 357.179 556.482 357.33C556.633 357.406 556.709 357.519 556.709 357.671C556.709 357.822 556.633 357.973 556.482 358.124C556.331 358.276 556.104 358.351 555.802 358.351H515.424C514.819 358.351 514.517 358.124 514.517 357.671C514.517 357.293 514.895 357.028 515.651 356.877L522.569 355.969C524.006 355.667 524.989 355.062 525.518 354.155C526.048 353.247 526.237 352.189 526.085 350.979L518.033 288.825C516.974 281.339 515.008 275.743 512.135 272.038C509.337 268.333 505.33 266.481 500.112 266.481C496.936 266.481 493.798 267.312 490.698 268.976C487.598 270.564 484.309 273.021 480.831 276.348L477.428 280.091Z" fill="#F4BFD9"/>
<path d="M646.642 298.465C646.642 299.07 646.453 299.562 646.075 299.94C645.697 300.318 645.13 300.507 644.374 300.507H574.394V298.806H624.639C625.849 298.806 626.453 298.163 626.453 296.877C626.453 284.326 624.412 274.874 620.329 268.522C616.321 262.171 611.255 258.995 605.13 258.995C599.762 258.995 595.187 260.659 591.407 263.986C587.626 267.237 584.715 272.038 582.673 278.39C580.632 284.666 579.611 292.378 579.611 301.528C579.611 317.104 582.938 328.938 589.592 337.028C596.246 345.119 604.904 349.164 615.565 349.164C623.051 349.164 629.516 346.971 634.96 342.586C640.404 338.2 643.655 332.227 644.714 324.665C644.714 324.363 644.79 324.174 644.941 324.098C645.092 323.947 645.206 323.871 645.281 323.871C645.432 323.871 645.584 323.947 645.735 324.098C645.886 324.174 645.962 324.438 645.962 324.892C645.281 331.697 643.088 337.822 639.383 343.266C635.754 348.635 630.99 352.869 625.092 355.969C619.27 359.069 612.73 360.62 605.471 360.62C596.624 360.62 588.836 358.616 582.106 354.608C575.452 350.601 570.235 344.892 566.454 337.482C562.749 330.072 560.897 321.338 560.897 311.282C560.897 300.847 562.825 291.584 566.681 283.494C570.537 275.403 575.944 269.052 582.9 264.439C589.932 259.751 598.136 257.407 607.512 257.407C615.452 257.407 622.333 259.184 628.155 262.738C633.977 266.292 638.514 271.169 641.765 277.369C645.017 283.494 646.642 290.526 646.642 298.465Z" fill="#F4BFD9"/>
<path d="M687.807 192.644V352.453C687.807 353.361 688.034 354.117 688.487 354.722C688.941 355.251 689.621 355.591 690.529 355.742L697.674 356.877C698.128 356.877 698.43 356.952 698.582 357.104C698.733 357.255 698.808 357.444 698.808 357.671C698.808 357.822 698.733 357.973 698.582 358.124C698.43 358.276 698.204 358.351 697.901 358.351H657.183C657.032 358.351 656.843 358.276 656.616 358.124C656.465 357.973 656.389 357.822 656.389 357.671C656.389 357.519 656.503 357.368 656.73 357.217C656.956 356.99 657.372 356.839 657.977 356.763L664.896 355.742C665.879 355.591 666.597 355.251 667.051 354.722C667.504 354.117 667.731 353.436 667.731 352.68V202.285C667.731 201.907 667.618 201.604 667.391 201.378C667.164 201.151 666.824 201.037 666.37 201.037H657.523C657.221 201.037 656.994 200.962 656.843 200.81C656.692 200.659 656.616 200.47 656.616 200.243C656.616 200.017 656.692 199.865 656.843 199.79C657.07 199.638 657.297 199.525 657.523 199.449L684.744 191.85C685.349 191.623 685.765 191.51 685.992 191.51C686.219 191.434 686.483 191.397 686.786 191.397C687.088 191.397 687.315 191.548 687.466 191.85C687.693 192.077 687.807 192.342 687.807 192.644Z" fill="#F4BFD9"/>
<path d="M714.088 358.351C713.937 358.351 713.748 358.276 713.521 358.124C713.37 357.973 713.294 357.822 713.294 357.671C713.294 357.519 713.408 357.368 713.635 357.217C713.937 356.99 714.353 356.839 714.882 356.763L721.914 355.742C722.822 355.591 723.502 355.251 723.956 354.722C724.41 354.117 724.636 353.436 724.636 352.68V202.285C724.636 201.907 724.523 201.604 724.296 201.378C724.145 201.151 723.805 201.037 723.275 201.037H714.429C714.126 201.037 713.899 200.962 713.748 200.81C713.672 200.659 713.635 200.47 713.635 200.243C713.635 200.017 713.71 199.865 713.861 199.79C714.013 199.638 714.202 199.525 714.429 199.449L741.649 191.85C742.254 191.623 742.67 191.51 742.897 191.51C743.124 191.434 743.388 191.397 743.691 191.397C743.993 191.397 744.22 191.548 744.371 191.85C744.598 192.077 744.712 192.342 744.712 192.644V352.453C744.712 353.361 744.939 354.117 745.392 354.722C745.846 355.251 746.526 355.591 747.434 355.742L754.579 356.877C755.335 356.952 755.713 357.217 755.713 357.671C755.713 358.124 755.411 358.351 754.806 358.351H714.088ZM741.196 320.582L785.997 275.328C789.097 272.152 790.344 269.316 789.74 266.821C789.135 264.326 786.942 262.738 783.161 262.057L778.624 261.377C778.246 261.226 777.982 261.112 777.83 261.037C777.679 260.885 777.604 260.696 777.604 260.47C777.604 260.243 777.679 260.091 777.83 260.016C778.057 259.865 778.322 259.789 778.624 259.789H814.465C814.843 259.789 815.108 259.865 815.259 260.016C815.486 260.091 815.599 260.243 815.599 260.47C815.599 260.772 815.486 260.999 815.259 261.15C815.032 261.226 814.616 261.301 814.011 261.377C809.323 262.284 804.749 263.91 800.288 266.254C795.826 268.598 791.63 271.812 787.698 275.895L742.216 321.943L741.196 320.582ZM772.84 289.732L807.773 349.958C809.134 352.302 810.533 353.928 811.97 354.835C813.482 355.667 815.41 356.347 817.754 356.877C818.284 357.028 818.586 357.179 818.662 357.33C818.813 357.406 818.889 357.557 818.889 357.784C818.889 357.935 818.813 358.086 818.662 358.238C818.586 358.313 818.397 358.351 818.095 358.351H775.222C774.995 358.351 774.806 358.313 774.655 358.238C774.503 358.086 774.428 357.897 774.428 357.671C774.428 357.519 774.541 357.368 774.768 357.217C774.995 356.99 775.297 356.877 775.675 356.877L780.893 356.196C782.783 355.894 783.955 355.213 784.409 354.155C784.938 353.02 784.711 351.584 783.728 349.845L758.436 304.477L772.84 289.732Z" fill="#F4BFD9"/>
<path d="M854.382 259.222V352.453C854.382 353.361 854.609 354.117 855.062 354.722C855.516 355.251 856.197 355.591 857.104 355.742L864.25 356.877C864.703 356.877 865.006 356.952 865.157 357.104C865.308 357.255 865.384 357.444 865.384 357.671C865.384 357.822 865.308 357.973 865.157 358.124C865.006 358.276 864.779 358.351 864.476 358.351H823.758C823.607 358.351 823.418 358.276 823.191 358.124C823.04 357.973 822.965 357.822 822.965 357.671C822.965 357.519 823.04 357.406 823.191 357.33C823.343 357.179 823.607 357.066 823.985 356.99L831.471 355.742C832.454 355.591 833.172 355.251 833.626 354.722C834.08 354.117 834.307 353.436 834.307 352.68V268.863C834.307 268.485 834.193 268.182 833.966 267.955C833.815 267.728 833.475 267.615 832.946 267.615H824.099C823.796 267.615 823.569 267.539 823.418 267.388C823.343 267.237 823.305 267.048 823.305 266.821C823.305 266.594 823.38 266.443 823.532 266.367C823.683 266.216 823.872 266.103 824.099 266.027L851.32 258.428C851.924 258.201 852.34 258.088 852.567 258.088C852.794 258.012 853.059 257.974 853.361 257.974C853.664 257.974 853.891 258.125 854.042 258.428C854.269 258.655 854.382 258.919 854.382 259.222ZM843.72 239.714C840.015 239.714 836.991 238.466 834.647 235.971C832.378 233.4 831.244 230.262 831.244 226.557C831.244 222.852 832.416 219.752 834.76 217.256C837.104 214.686 840.091 213.4 843.72 213.4C847.501 213.4 850.563 214.686 852.907 217.256C855.327 219.827 856.537 222.927 856.537 226.557C856.537 230.262 855.327 233.4 852.907 235.971C850.488 238.466 847.426 239.714 843.72 239.714Z" fill="#F4BFD9"/>
<path d="M78.9129 169.137L77.9171 166.902C79.2448 166.902 80.9873 166.902 83.1448 166.902C85.3022 166.902 87.3767 166.902 89.3682 166.902C91.5256 166.902 93.1022 166.902 94.098 166.902C119.158 166.902 140.898 170.131 159.319 176.588C177.741 182.88 191.93 192.814 201.887 206.391C211.845 219.802 216.824 237.104 216.824 258.297C216.824 278.994 212.011 296.958 202.385 312.191C192.926 327.423 179.649 339.261 162.556 347.706C145.462 355.984 125.63 360.123 103.06 360.123C81.1533 360.123 62.4831 356.978 47.049 350.686C31.7809 344.229 20.0809 335.619 11.949 324.857C3.98298 313.929 0 301.511 0 287.603C0 277.338 2.40639 269.142 7.21916 263.016C12.1979 256.724 18.1724 253.579 25.1426 253.579C30.9511 253.579 35.8469 255.897 39.8298 260.533C43.9788 265.168 46.0532 271.295 46.0532 278.911V305.982C46.0532 321.049 50.949 333.384 60.7405 342.987C70.698 352.59 85.3022 357.309 104.553 357.143C117.664 356.978 129.032 353.749 138.658 347.457C148.283 341 155.751 331.231 161.062 318.151C166.539 305.071 169.277 288.514 169.277 268.48C169.277 235.697 162.224 211.358 148.117 195.463C134.011 179.403 115.507 171.373 92.6044 171.373H77.9171C76.7554 171.373 75.8427 171.207 75.1788 170.876C74.6809 170.379 74.432 169.717 74.432 168.889C74.432 168.392 74.6809 167.896 75.1788 167.399C75.8427 166.737 76.6724 165.826 77.6682 164.667L184.213 45.2076L184.711 47.1944H36.8426C34.6851 47.1944 32.6937 47.8567 30.8681 49.1813C29.2085 50.3403 28.0468 52.2443 27.383 54.8934L17.1766 93.3887C17.0107 94.051 16.6787 94.5477 16.1809 94.8788C15.683 95.0444 15.1021 95.1272 14.4383 95.1272C13.9404 95.1272 13.5255 94.8788 13.1936 94.3821C12.8617 93.7198 12.7787 93.0575 12.9447 92.3952L23.4 13.6663C23.566 11.845 24.0639 10.3549 24.8936 9.19591C25.8894 8.0369 27.3 7.4574 29.1256 7.4574H220.309C221.139 7.4574 221.802 7.70576 222.3 8.20247C222.964 8.69919 223.296 9.44426 223.296 10.4377C223.296 11.1 223.047 11.9278 222.549 12.9213C222.051 13.7491 221.222 14.8253 220.06 16.1499L78.9129 169.137Z" fill="#F4BFD9"/>
</svg>
