<svg width="575" height="771" viewBox="0 0 575 771" fill="none" xmlns="http://www.w3.org/2000/svg">
<path d="M77.5815 586.967C80.8308 581.493 82.6447 575.657 82.6447 570.161C82.6447 568.586 82.4944 567.051 82.2218 565.554C80.9978 559.179 77.1587 553.66 71.1218 549.643C59.56 541.938 49.2277 546.355 43.4301 553.065C39.2071 557.927 36.5865 564.759 36.5865 571.679C36.5865 577.571 38.4726 583.518 42.8737 588.419C42.8737 588.419 43.3578 588.892 43.6082 589.142C36.3472 589.648 28.3241 587.084 24.5684 578.082C23.1218 574.639 20.4066 572.441 17.0961 572.041C13.8857 571.668 10.5919 573.092 8.70568 575.674C6.80282 578.283 6.59137 581.71 8.11589 585.059C12.7339 595.184 21.1355 602.455 31.7515 605.542C42.6234 608.697 54.4301 606.928 64.2893 600.73C72.3403 602.75 80.7307 602.661 88.4089 600.814C89.2379 595.495 90.0948 590.177 90.9906 584.853C86.7342 586.349 82.1328 587.073 77.5815 586.967ZM64.3393 576.725C63.3044 578.539 61.7188 580.213 60.0162 581.827C56.5109 579.69 54.2854 577.276 53.857 574.539C53.8236 574.333 53.8013 574.116 53.8013 573.865C53.8013 571.935 54.7749 568.825 56.4831 566.539C57.4512 565.248 58.4805 564.469 59.3652 564.364C61.0344 564.147 62.954 565.259 64.2392 567.19C65.1962 568.625 65.6803 570.255 65.6803 571.919C65.6803 573.537 65.2296 575.179 64.3393 576.725Z" fill="#F4BFD9"/>
<path d="M466.284 467.968L484.828 475.573L486.614 476.386C486.614 476.386 487.237 476.669 487.66 476.853C487.721 476.881 487.777 476.908 487.833 476.936C487.833 476.936 523.759 493.52 523.804 493.554C523.959 493.609 524.093 493.62 524.249 493.687C524.338 493.832 524.427 493.987 524.532 494.132L525.94 496.613L528.939 505.82C529.907 509.225 530.897 512.752 532.372 516.112C533.924 519.639 537.329 521.113 541.046 519.867C544.179 518.821 547.049 515.845 547.049 512.068C547.049 511.484 546.994 510.894 546.844 510.293C546.221 507.567 545.347 504.674 544.223 501.437L556.926 511.951L560.275 514.805C564.387 518.293 569.044 517.075 571.609 514.449C574.124 511.879 575.231 507.311 571.709 503.322C564.96 495.656 556.519 489.843 547.049 483.862C548.836 483.301 550.611 482.805 552.346 482.433L560.553 481.415L568.014 480.547C572.432 479.762 574.363 475.54 574.291 471.963C574.207 467.774 571.664 464.625 567.948 464.113C557.504 462.656 542.788 467.957 532.834 473.86C531.932 474.388 531.087 474.922 530.308 475.445C518.907 469.359 506.989 463.763 494.932 458.845C494.921 458.845 494.904 458.845 494.888 458.839C494.877 458.828 494.86 458.817 494.832 458.806C476.371 451.284 459.101 445.999 443.382 443.029C446.598 449.337 449.575 455.779 452.357 462.338C457.014 464.297 461.682 466.155 466.284 467.968Z" fill="#F4BFD9"/>
<path d="M377.828 742.317C372.436 745.21 374.378 752.937 378.351 755.963C379.358 756.731 380.493 757.221 381.684 757.21C398.064 757.198 414.349 754.956 431.336 753.059C437.173 752.414 444.3 751.797 451.294 750.517C459.59 749.004 467.685 746.545 473.205 741.905C479.564 736.581 477.912 726.195 470.183 723.129C457.648 718.189 439.154 724.348 426.618 727.663C416.336 730.4 406.276 733.349 396.295 736.392C390.575 738.139 384.872 739.919 379.191 741.732C378.69 741.894 378.234 742.089 377.828 742.317Z" fill="#231F20"/>
<path d="M370.428 687.965C370.45 688.065 370.445 688.154 370.456 688.254C372.67 706.407 375.358 724.565 377.95 742.133L377.995 742.445C378.401 742.217 378.857 742.022 379.358 741.861C385.039 740.047 390.742 738.267 396.461 736.52C394.581 724.432 393.129 711.948 391.743 699.798C391.743 699.798 390.352 687.948 390.063 685.506C390.046 685.406 390.052 685.322 390.041 685.233C389.412 680.076 388.744 674.847 388.016 669.578C381.472 669.606 374.94 669.634 368.403 669.634C368.981 675.464 369.66 681.55 370.428 687.965Z" fill="#F4BFD9"/>
<path d="M171.162 737.159C163.996 738.216 164.168 749.175 168.864 752.051C169.137 752.229 169.421 752.374 169.721 752.48C185.128 758.043 201.208 761.487 217.821 765.476C226.857 767.645 238.903 771.039 249.603 771C253.67 770.994 257.553 770.51 260.986 769.242C268.776 766.399 270.762 756.068 264.536 750.566C254.438 741.637 234.947 741.131 222.033 739.996C211.434 739.061 200.963 738.405 190.547 737.882C184.571 737.582 178.601 737.315 172.648 737.081C172.114 737.059 171.63 737.092 171.162 737.159Z" fill="#231F20"/>
<path d="M182.721 683.456C182.688 683.562 182.649 683.657 182.632 683.773C178.554 701.481 174.915 719.361 171.399 736.668L171.265 737.291C171.732 737.224 172.216 737.191 172.751 737.213C178.704 737.447 184.674 737.714 190.65 738.014C193.003 725.998 195.885 713.753 198.706 701.859C198.706 701.859 201.466 690.199 202.006 687.846C202.023 687.762 202.056 687.69 202.073 687.601C203.491 681.453 204.882 675.162 206.173 668.792C199.569 668.625 192.959 668.469 186.354 668.297C185.147 673.142 183.94 678.171 182.721 683.456Z" fill="#F4BFD9"/>
<path d="M89.2408 658.567C221.257 661.151 354.088 667.093 486.052 659.66C475.253 581.45 464.327 497.674 425.145 428.118C419.555 418.211 412.983 409.067 405.67 400.582C398.346 406.437 390.565 411.731 382.414 416.413C372.511 422.095 362.111 426.916 351.509 430.858C349.457 431.626 347.399 432.349 345.33 433.054C329.774 438.314 313.478 441.973 296.939 443.828C274.752 446.331 252.155 445.591 230.373 441.181C213.898 437.817 197.902 432.36 182.907 424.598C175.167 420.586 168.062 415.991 161.431 410.986C157.419 416.506 153.564 422.176 150.02 428.118C109.832 495.715 99.7907 581.508 89.2408 658.567Z" fill="#F1635D"/>
<path d="M401.353 405.522C408.392 413.689 414.718 422.489 420.098 432.025C457.81 498.972 468.326 579.605 478.72 654.881C351.706 662.035 223.858 656.316 96.795 653.829C106.949 579.661 116.614 497.086 155.294 432.025C158.705 426.306 162.416 420.848 166.277 415.536C162.271 412.515 158.416 409.366 154.832 405.995C154.66 405.839 154.493 405.661 154.315 405.494C153.959 405.978 153.564 406.412 153.197 406.896C150.131 411.057 147.238 415.357 144.539 419.769C139.993 427.196 135.887 434.834 132.031 442.606C132.304 442.556 132.582 442.495 132.849 442.45C136.75 441.772 139.893 444.453 140.867 447.329C141.868 450.311 140.644 453.215 137.757 454.711C133.066 457.137 128.237 459.334 123.352 461.421C106.938 500.452 97.4127 542.766 90.3354 585.063C89.4396 590.387 88.5827 595.705 87.7537 601.023C84.8437 619.832 82.2899 638.552 79.725 656.9C78.7179 664.16 86.1067 668.544 91.22 667.047C92.1213 667.498 93.173 667.782 94.4248 667.748C124.976 667.342 155.533 667.993 186.102 668.772C192.706 668.944 199.316 669.1 205.92 669.267C236.822 670.057 267.724 670.758 298.638 670.385C321.989 670.107 345.33 670.168 368.676 670.135C375.214 670.135 381.746 670.107 388.289 670.079C420.382 669.912 452.48 669.328 484.562 667.136C489.658 668.316 496.635 663.976 495.651 656.9C486.821 593.585 478.77 523.022 453.059 462.244C450.277 455.685 447.3 449.243 444.084 442.934C440.045 434.99 435.66 427.24 430.836 419.769C425.323 411.196 419.23 403.141 412.704 395.514C409.621 398.512 406.433 401.394 403.117 404.136C402.538 404.604 401.937 405.049 401.353 405.522Z" fill="#EE3424"/>
<path d="M513.048 146.641C530.879 128.431 524.316 100.013 510.494 81.3603C491.385 55.5571 465.304 49.3751 434.883 51.9622C434.508 52.4885 434.054 52.9755 433.438 53.401C409.541 70.1104 428.151 115.025 440.607 133.084C457.094 156.995 489.028 171.212 513.048 146.641ZM489.285 85.9295C505.649 83.9304 505.834 114.919 487.325 110.092C475.357 106.973 477.328 87.3854 489.285 85.9295ZM454.619 94.8721C470.983 92.8674 471.168 123.861 452.659 119.035C440.707 115.916 442.668 96.3224 454.619 94.8721Z" fill="#F4BFD9"/>
<path d="M214.747 337.6C230.543 332.029 240.698 317.89 246.082 302.583C256.063 274.111 248.197 244.511 222.106 228.154C202.429 215.823 172.408 210.642 152.105 224.524C142.284 231.228 136.608 241.667 134.181 253.309C129.986 273.533 135.62 297.451 146.52 311.861C161.627 331.834 189.7 346.411 214.747 337.6Z" fill="#F5A2C6"/>
<path d="M166.132 404.538C175.697 413.923 188.812 420.031 201.686 426.323C212.486 431.602 230.307 437.511 242.019 440.265C262.745 445.149 279.971 442.994 301.276 440.668C316.081 439.072 326.169 433.908 340.079 429.207C342.165 428.495 356.478 424.543 358.542 423.764C367.695 420.331 371.104 418.706 379.967 413.732C386.989 409.782 392.523 402.125 398.938 397.212C406.282 391.566 413.103 384.641 419.079 377.715C425.071 370.789 428.303 367.729 432.348 359.523C433.778 356.602 436.373 347.156 437.508 344.068C441.615 333.014 444.905 318.104 445.217 307.183C445.573 294.555 440.44 283.375 436.879 271.225L420.603 230.875C446.325 217.751 482.001 190.837 503.066 170.654C476.22 175.105 446.494 160.138 432.056 133.296C420.945 112.634 413.47 71.0202 429.294 49.4351C392.678 53.4127 334.493 63.0859 298.467 74.3458L316.492 69.2077C306.989 72.1729 269.042 83.5215 269.042 83.5215C234.758 99.3673 211.034 113.547 186.973 130.876C178.972 137.29 153.267 160.677 153.267 160.677C153.267 160.677 134.837 192.133 125.775 213.807C118.192 235.114 112.872 260.303 113.818 282.901C114.319 294.806 116.465 319.462 119.052 330.895C122.107 344.458 130.52 355.578 136.657 367.695C143.44 381.085 155.377 393.99 166.132 404.538ZM316.293 90.3685C321.078 85.2448 326.936 81.623 333.263 79.7983C340.585 77.6843 348.524 77.9957 356.052 81.1779C368.705 86.5241 377.735 98.8355 377.863 112.727C378.041 133.939 357.26 151.808 336.039 150.061C307.451 147.719 298.049 109.94 316.293 90.3685ZM230.352 143.48C232.333 138.256 235.176 133.188 238.732 128.893C241.886 125.083 245.542 121.561 249.587 118.835C257.332 113.634 266.44 111.336 275.921 115.447C286.837 120.176 294.004 131.347 297.008 142.479C301.849 160.292 295.879 179.73 278.391 187.852C260.23 196.297 239.227 189.849 231.025 171.185C227.142 162.367 226.942 152.476 230.352 143.48ZM155.178 305.252C146.459 293.725 141.953 274.593 145.308 258.415C147.249 249.103 151.79 240.752 159.646 235.39C175.887 224.285 199.901 228.43 215.641 238.293C236.512 251.378 242.804 275.055 234.82 297.831C230.514 310.075 222.39 321.385 209.755 325.841C189.719 332.89 167.263 321.229 155.178 305.252Z" fill="#F4BFD9"/>
<path d="M452.657 119.371C471.493 124.283 471.305 92.7419 454.652 94.782C442.49 96.2579 440.495 116.197 452.657 119.371Z" fill="#C0739C"/>
<path d="M487.016 110.429C505.928 115.361 505.739 83.6976 489.018 85.7402C476.801 87.2278 474.787 107.242 487.016 110.429Z" fill="#C0739C"/>
<path d="M154.2 406.312C154.378 406.478 154.544 406.656 154.717 406.812C158.3 410.183 162.156 413.332 166.162 416.353C172.544 421.171 179.382 425.593 186.832 429.454C201.265 436.926 216.66 442.177 232.517 445.415C253.482 449.66 275.232 450.372 296.586 447.963C312.504 446.177 328.189 442.656 343.161 437.593C345.153 436.915 347.134 436.219 349.109 435.479C359.314 431.685 369.323 427.046 378.854 421.577C386.699 417.071 394.188 411.975 401.238 406.339C401.822 405.866 402.423 405.421 403.002 404.954C406.318 402.211 409.506 399.33 412.588 396.331C416.583 392.459 420.383 388.387 423.894 384.092C428.573 378.362 432.796 372.259 436.48 365.778C437.693 363.631 438.855 361.45 439.957 359.214C441.726 355.62 443.268 351.998 444.581 348.349C448.754 336.861 450.796 325.117 451.04 313.39C451.313 299.86 449.21 286.336 445.271 273.19C441.343 260.044 435.578 247.277 428.523 235.249C467.627 220.557 503.147 185.77 526.832 154.878C527.734 153.693 528.067 152.469 528.006 151.284C542.723 131.846 539.212 103.095 527.645 81.6661C510.391 49.6833 468.979 27.5921 432.93 38.6461C432.168 38.8798 431.517 39.2414 430.944 39.6587C389.264 44.3095 346.917 51.547 306.323 63.7749C306.295 63.786 306.267 63.7972 306.245 63.8027C304.298 64.3924 302.356 65.0046 300.42 65.6054C297.109 66.6513 293.793 67.7249 290.505 68.8376C288.752 69.4273 286.999 70.0502 285.252 70.6677C281.919 71.8471 278.592 73.0431 275.293 74.2948C275.565 70.9402 275.699 67.608 275.738 64.3813C275.844 56.0755 274.709 47.6027 272.333 39.6363C268.421 26.5461 260.532 14.9524 249.287 7.14167C230.759 -5.71485 203.607 -1.50914 197.114 22.1678C193.931 33.7781 196.591 46.49 200.541 57.5608C205.788 72.2976 213.906 85.8609 223.337 98.3502C220.661 99.8467 217.995 101.382 215.358 102.957C215.03 103.151 214.707 103.357 214.379 103.546C210.022 106.155 205.705 108.87 201.465 111.691C201.337 111.78 201.198 111.869 201.076 111.958C199.974 112.686 198.883 113.443 197.793 114.189C195.011 107.068 191.417 100.142 187.872 93.933C182.898 85.2322 176.578 77.032 168.977 70.4786C157.727 60.7653 142.866 54.5735 127.949 58.1061C115.491 61.049 106.322 71.9418 104.503 84.4256C101.893 102.4 110.945 119.023 121.901 132.569C129.729 142.255 139.372 150.594 149.632 157.882C134.481 176.563 122.569 197.831 115.002 220.818C108.353 240.974 105.087 262.203 105.365 283.432C105.543 296.839 106.923 310.052 109.56 322.819C110.267 326.274 111.101 329.69 112.014 333.089C115.135 344.833 119.358 356.137 124.783 366.746C132.289 381.439 142.059 394.807 154.2 406.312ZM433.731 53.8223C434.343 53.3995 434.794 52.9158 435.167 52.3928C465.39 49.8226 491.301 55.9644 510.285 81.5995C524.017 100.131 530.538 128.363 512.822 146.455C488.959 170.866 457.233 156.742 440.853 132.987C428.479 115.045 409.99 70.4229 433.731 53.8223ZM219.242 15.2753C219.231 15.2753 219.22 15.2753 219.208 15.2753C217.684 15.8761 220.243 14.7412 219.242 15.2753ZM216.298 16.9774C216.287 16.9885 216.276 16.9996 216.265 17.0107C215.425 17.5726 217.528 15.926 216.298 16.9774ZM210.723 43.3024C209.555 37.6279 209.466 31.1857 210.573 26.5293C211.636 22.0621 212.743 20.0318 216.276 16.9998C216.337 16.9553 216.376 16.9328 216.465 16.866C216.872 16.5879 217.311 16.3208 217.74 16.0705C218.174 15.809 218.619 15.5865 219.064 15.3584C219.164 15.3084 219.197 15.2972 219.259 15.2583C220.177 14.8967 221.161 14.6352 222.124 14.3904C222.63 14.2736 223.131 14.1792 223.626 14.0902C223.632 14.0902 223.643 14.0902 223.643 14.0902C223.303 14.1014 223.771 14.029 223.932 14.0179C224.027 14.0012 224.016 14.029 223.643 14.0902C223.771 14.0902 223.954 14.079 224.322 14.0512C225.384 13.9677 226.447 13.99 227.521 14.0345C228.339 14.0679 228.595 14.0623 228.678 14.0512C228.678 14.0679 228.806 14.1181 229.446 14.2182C230.564 14.4185 231.672 14.6965 232.762 15.008C233.33 15.1638 235.661 16.0316 235.761 16.026C235.661 15.9871 235.589 15.9428 235.5 15.8983C235.717 15.9985 235.772 16.026 235.761 16.026C245.748 20.4154 252.703 28.7323 256.704 38.657C259.636 45.8891 260.938 53.4941 261.188 61.2269C261.405 67.9639 260.27 74.3507 259.18 80.7873C250.55 84.4757 242.059 88.4754 233.73 92.7813C223.754 77.4547 214.423 61.188 210.723 43.3024ZM120.427 104.392C118.173 98.2 117.288 91.374 118.412 86.0222C119.425 81.2879 122.179 77.1209 124.794 75.1627C129.301 71.8081 132.511 71.2186 137.981 71.4022C143.211 71.5913 149.442 74.217 154.767 77.7107C170.468 88.0304 178.842 106.061 185.057 123.423C175.014 131.151 165.65 139.74 157.165 149.114C141.853 137.048 127.059 122.6 120.427 104.392ZM123.537 318.708C120.949 307.276 119.447 295.493 118.947 283.588C118.001 260.99 121.389 238.375 128.973 217.068C132.934 205.97 138.231 195.5 144.524 185.659C144.529 185.653 144.535 185.648 144.552 185.637C146.321 182.861 148.185 180.135 150.11 177.464C150.238 177.292 150.366 177.13 150.483 176.964C152.241 174.566 154.044 172.207 155.908 169.893C156.186 169.553 156.447 169.214 156.72 168.88C157.833 167.523 158.996 166.21 160.147 164.875C160.921 165.353 161.689 165.859 162.468 166.332C168.438 169.965 173.239 161.103 167.831 157.164C167.692 157.058 167.553 156.958 167.408 156.858C174.53 149.42 182.169 142.483 190.17 136.068C193.893 140.43 203.112 137.637 202.355 131.29C202.205 129.977 201.96 128.647 201.704 127.312C205.282 124.759 208.898 122.255 212.587 119.852C213.65 119.168 214.729 118.533 215.798 117.86C218.863 115.919 221.907 113.988 225.039 112.147C226.085 111.535 227.154 110.967 228.211 110.367C229.29 109.743 230.392 109.148 231.494 108.536C231.694 108.781 231.894 109.037 232.1 109.282C235.833 113.671 243.066 108.336 240.757 103.507C246.555 100.492 252.481 97.6604 258.479 94.9456C260.966 99.0734 268.455 100.119 270.68 95.0291C271.548 93.0208 272.244 90.9177 272.856 88.7647C274.881 87.9414 276.895 87.0737 278.948 86.2782C279.076 86.2393 279.199 86.1891 279.321 86.139C288.563 82.5619 297.955 79.2963 307.458 76.3311V76.3199C343.484 65.06 381.069 57.9613 417.685 53.9836C401.861 75.5688 414.486 113.321 425.597 133.982C440.035 160.825 464.611 176.435 491.457 171.984C470.392 192.168 447.591 210.07 421.869 223.194C421.329 222.476 420.756 221.808 420.105 221.252C414.719 216.635 407.97 222.303 410.669 228.501C408.182 229.608 405.678 230.671 403.135 231.678C397.093 234.059 399.413 242.287 405.789 241.313C409.6 240.723 413.389 239.9 417.156 238.893C423.482 250.32 428.751 262.236 432.351 274.486C435.912 286.636 437.826 299.103 437.47 311.732C437.159 322.652 435.156 333.701 431.049 344.755C429.914 347.842 428.607 350.852 427.177 353.773C423.132 361.978 417.969 369.544 411.976 376.471C406.001 383.397 399.179 389.677 391.835 395.324C385.42 400.236 378.598 404.676 371.577 408.626C362.713 413.599 353.511 417.8 344.358 421.232C342.294 422.011 340.213 422.745 338.126 423.457C324.216 428.158 309.622 431.39 294.817 432.987C273.512 435.312 251.78 434.25 231.054 429.365C219.342 426.611 207.958 422.634 197.159 417.354C184.284 411.062 173.1 403.024 163.536 393.638C152.781 383.091 144.062 370.829 137.28 357.439C131.143 345.322 126.591 332.271 123.537 318.708Z" fill="#EB99C2"/>
<path d="M334.521 136.654C347.938 138.57 365.276 127.474 364.01 112.855C362.9 99.9951 352.369 93.7388 340.454 92.837C333.838 92.3329 328.875 93.6884 324.382 99.0487C320.494 103.703 318.78 109.87 319.116 115.874C319.637 125.094 324.427 135.209 334.521 136.654ZM324.752 111.713C326.354 102.936 339.065 101.11 344.493 107.461C350.386 114.384 347.764 124.186 338.364 125.81C331.088 127.06 323.452 118.792 324.752 111.713Z" fill="white"/>
<path d="M271.732 177.503C285.914 171.795 291.679 156.403 284.878 142.501C281.683 135.938 276.445 129.199 268.957 127.506C262.603 126.056 253.02 129.323 248.648 134.176C246.201 136.9 244.088 139.947 242.525 143.271C239.371 149.981 238.719 157.604 241.415 164.586C246.263 177.135 259.239 182.514 271.732 177.503ZM247.135 150.718C248.75 141.855 261.606 139.992 267.088 146.414C273.046 153.413 270.401 163.323 260.881 164.965C253.541 166.234 245.821 157.875 247.135 150.718Z" fill="white"/>
<path d="M260.847 165.258C270.462 163.599 273.133 153.592 267.116 146.523C261.579 140.038 248.596 141.92 246.966 150.87C245.639 158.098 253.435 166.539 260.847 165.258Z" fill="#231F20"/>
<path d="M338.417 125.885C347.808 124.262 350.427 114.469 344.539 107.553C339.116 101.207 326.418 103.031 324.817 111.8C323.519 118.873 331.147 127.133 338.417 125.885Z" fill="#231F20"/>
<path d="M278.945 188.099C296.56 179.918 302.574 160.337 297.698 142.394C294.671 131.18 287.453 119.927 276.456 115.164C266.906 111.023 257.731 113.337 249.929 118.577C245.855 121.323 242.172 124.87 238.994 128.709C235.413 133.035 232.549 138.14 230.554 143.402C227.118 152.464 227.32 162.428 231.232 171.31C239.493 190.111 260.651 196.606 278.945 188.099ZM242.654 143.654C244.201 140.365 246.292 137.35 248.713 134.654C253.04 129.852 262.523 126.618 268.811 128.053C276.221 129.729 281.405 136.397 284.566 142.892C291.297 156.65 285.592 171.881 271.558 177.53C259.194 182.49 246.353 177.166 241.556 164.748C238.888 157.838 239.532 150.295 242.654 143.654Z" fill="#EB99C2"/>
<path d="M336.135 150.442C357.466 152.198 378.356 134.236 378.177 112.913C378.048 98.9491 368.971 86.5735 356.253 81.1994C348.685 78.0007 340.704 77.6876 333.344 79.8127C326.985 81.6469 321.096 85.2875 316.286 90.4379C297.947 110.111 307.398 148.088 336.135 150.442ZM324.502 99.1283C328.987 93.7765 333.942 92.4232 340.548 92.9265C352.444 93.8268 362.959 100.073 364.066 112.913C365.33 127.508 348.02 138.587 334.625 136.674C324.546 135.231 319.764 125.132 319.244 115.927C318.909 109.932 320.62 103.775 324.502 99.1283Z" fill="#EB99C2"/>
<path d="M344.193 339.55C315.895 346.093 292.126 338.177 273.999 315.813C269.186 309.871 259.477 316.653 263.027 323.317C295.887 384.996 409.597 352.379 400.556 281.599C399.838 276.025 390.585 276.631 390.669 282.261C391.047 310.884 372.046 333.125 344.193 339.55Z" fill="#EF5091"/>
<path d="M259.347 81.0914C260.459 74.5296 261.616 68.0186 261.395 61.1505C261.14 53.2673 259.812 45.5145 256.823 38.1417C252.745 28.024 245.655 19.5453 235.474 15.0706C235.371 15.0763 232.995 14.1917 232.416 14.0329C231.305 13.7153 230.176 13.4319 229.036 13.2277C228.383 13.1256 228.253 13.0744 228.253 13.0574C228.168 13.0688 227.907 13.0745 227.073 13.0404C225.978 12.9951 224.895 12.9723 223.812 13.0574C223.437 13.0858 223.25 13.0972 223.12 13.0972C223.12 13.0972 223.108 13.0972 223.103 13.0972C222.598 13.188 222.087 13.2841 221.571 13.4032C220.59 13.6528 219.586 13.9193 218.65 14.288C218.588 14.3277 218.554 14.3391 218.451 14.3901C217.998 14.6226 217.544 14.8494 217.101 15.116C216.665 15.3712 216.217 15.6434 215.802 15.927C215.712 15.9951 215.672 16.018 215.61 16.0634C212.008 19.1543 210.879 21.2241 209.796 25.7782C208.667 30.5251 208.758 37.0927 209.949 42.8775C213.721 61.1109 223.233 77.6939 233.403 93.3186C241.894 88.9289 250.55 84.8515 259.347 81.0914Z" fill="#F4BFD9"/>
<path d="M235.958 16.5522C235.969 16.5522 235.914 16.5247 235.697 16.4245C235.786 16.469 235.858 16.5133 235.958 16.5522Z" fill="#908E73"/>
<path d="M216.53 17.5551C217.759 16.5037 215.656 18.1503 216.496 17.5884C216.507 17.5773 216.518 17.5662 216.53 17.5551Z" fill="#908E73"/>
<path d="M223.934 14.6805C224.308 14.6191 224.32 14.5912 224.225 14.6079C224.063 14.6191 223.594 14.6917 223.934 14.6805Z" fill="#908E73"/>
<path d="M219.443 15.7841C220.445 15.2501 217.885 16.385 219.41 15.7841C219.421 15.7841 219.432 15.7841 219.443 15.7841Z" fill="#908E73"/>
<path d="M185.451 123.265C179.114 105.561 170.576 87.1759 154.566 76.6533C149.136 73.091 142.782 70.4137 137.449 70.2208C131.872 70.0336 128.599 70.6347 124.004 74.0553C121.337 76.052 118.529 80.3009 117.496 85.1282C116.35 90.5852 117.252 97.5454 119.55 103.859C126.313 122.425 141.398 137.157 157.011 149.461C165.663 139.902 175.211 131.144 185.451 123.265Z" fill="#F4BFD9"/>
<path d="M141.415 447.359C140.441 444.483 137.303 441.802 133.403 442.48C133.136 442.525 132.852 442.586 132.579 442.636C116.45 445.546 98.6283 450.936 79.5441 458.713C79.5274 458.725 79.4885 458.725 79.4662 458.741C67.2312 463.726 55.2353 469.367 43.9962 475.386C43.2117 474.858 42.3771 474.329 41.4646 473.795C31.5107 467.893 16.783 462.591 6.33952 464.049C2.63394 464.561 0.0912728 467.709 0.00225 471.898C-0.075645 475.475 1.86611 479.698 6.27831 480.482L13.7507 481.35L21.9464 482.368C23.6823 482.741 25.4739 483.236 27.2599 483.798C17.7623 489.778 9.34402 495.586 2.58385 503.258C-0.932549 507.247 0.169132 511.814 2.69515 514.384C5.26569 517.01 9.91154 518.229 14.0233 514.741L17.3839 511.887C17.3839 511.887 24.9453 505.622 30.0697 501.372C29.0904 504.154 28.1557 507.163 27.4435 510.229C27.3044 510.829 27.2432 511.419 27.2432 512.003C27.2432 515.781 30.1086 518.757 33.2523 519.803C36.9634 521.049 40.3685 519.575 41.9152 516.048C43.3897 512.704 44.4023 509.172 45.3482 505.756L48.3694 496.549L49.7604 494.068C49.8606 493.918 49.9607 493.767 50.0497 493.611C50.2167 493.55 50.3613 493.533 50.5393 493.456C50.5393 493.456 86.3878 476.9 86.3989 476.9C86.4156 476.889 86.4378 476.877 86.4545 476.872H86.4601L89.4591 475.509L108.004 467.915C113.262 465.834 118.608 463.704 123.9 461.451C128.785 459.364 133.614 457.167 138.305 454.741C141.192 453.245 142.416 450.341 141.415 447.359Z" fill="#F4BFD9"/>
</svg>
